<mxfile host="drawio.corp.amazon.com" modified="2025-09-26T08:50:44.733Z" agent="Mozilla/5.0 (Macintosh; Intel Mac OS X 10_15_7) AppleWebKit/537.36 (KHTML, like Gecko) Chrome/140.0.0.0 Safari/537.36" etag="ywDLLL39RlOoSGMJn8Fn" version="21.7.4" type="device">
  <diagram name="MCP Server Architecture" id="mcp-server-arch">
    <mxGraphModel dx="1370" dy="1502" grid="1" gridSize="10" guides="1" tooltips="1" connect="1" arrows="1" fold="1" page="1" pageScale="1" pageWidth="1169" pageHeight="827" math="0" shadow="0">
      <root>
        <mxCell id="0" />
        <mxCell id="1" parent="0" />
        <mxCell id="conn3" value="" style="endArrow=classic;html=1;rounded=0;exitX=0.5;exitY=1;exitDx=0;exitDy=0;entryX=0.5;entryY=0;entryDx=0;entryDy=0;" parent="1" source="ecs" target="cognito" edge="1">
          <mxGeometry width="50" height="50" relative="1" as="geometry">
            <mxPoint x="400" y="300" as="sourcePoint" />
            <mxPoint x="450" y="250" as="targetPoint" />
          </mxGeometry>
        </mxCell>
        <mxCell id="MyHjqr_ZiqhkuQCe465e-3" value="VPC" style="sketch=0;outlineConnect=0;gradientColor=none;html=1;whiteSpace=wrap;fontSize=12;fontStyle=0;shape=mxgraph.aws4.group;grIcon=mxgraph.aws4.group_vpc;strokeColor=#B6BABF;fillColor=none;verticalAlign=top;align=left;spacingLeft=30;fontColor=#B6BABF;dashed=0;" parent="1" vertex="1">
          <mxGeometry x="220" width="590" height="270" as="geometry" />
        </mxCell>
        <mxCell id="title" value="MCP Server with Auth&lt;br&gt;(2025-06-18)" style="text;html=1;strokeColor=none;fillColor=none;align=center;verticalAlign=middle;whiteSpace=wrap;rounded=0;fontSize=20;fontStyle=1;" parent="1" vertex="1">
          <mxGeometry x="360" y="-85" width="300" height="30" as="geometry" />
        </mxCell>
        <mxCell id="D5IDzVMak5_5yx_ht3Hh-5" style="edgeStyle=orthogonalEdgeStyle;rounded=0;orthogonalLoop=1;jettySize=auto;html=1;exitX=0.5;exitY=0;exitDx=0;exitDy=0;entryX=0.5;entryY=1;entryDx=0;entryDy=0;opacity=40;textOpacity=40;" parent="1" source="client" target="D5IDzVMak5_5yx_ht3Hh-2" edge="1">
          <mxGeometry relative="1" as="geometry" />
        </mxCell>
        <mxCell id="MyHjqr_ZiqhkuQCe465e-9" style="edgeStyle=orthogonalEdgeStyle;rounded=0;orthogonalLoop=1;jettySize=auto;html=1;exitX=0.75;exitY=1;exitDx=0;exitDy=0;entryX=0;entryY=0.5;entryDx=0;entryDy=0;" parent="1" source="client" target="cognito" edge="1">
          <mxGeometry relative="1" as="geometry" />
        </mxCell>
        <mxCell id="client" value="MCP Client&#xa;(Claude Desktop)" style="rounded=1;whiteSpace=wrap;html=1;fillColor=#dae8fc;strokeColor=#6c8ebf;fontSize=12;fontStyle=1;" parent="1" vertex="1">
          <mxGeometry x="50" y="100" width="120" height="60" as="geometry" />
        </mxCell>
        <mxCell id="D5IDzVMak5_5yx_ht3Hh-3" style="edgeStyle=orthogonalEdgeStyle;rounded=0;orthogonalLoop=1;jettySize=auto;html=1;exitX=0.5;exitY=0;exitDx=0;exitDy=0;opacity=40;textOpacity=40;" parent="1" source="alb" target="D5IDzVMak5_5yx_ht3Hh-1" edge="1">
          <mxGeometry relative="1" as="geometry" />
        </mxCell>
        <mxCell id="alb" value="Application&#xa;Load Balancer" style="rounded=1;whiteSpace=wrap;html=1;fillColor=#fff2cc;strokeColor=#d6b656;fontSize=12;fontStyle=1;" parent="1" vertex="1">
          <mxGeometry x="250" y="100" width="120" height="60" as="geometry" />
        </mxCell>
        <mxCell id="MyHjqr_ZiqhkuQCe465e-6" style="rounded=0;orthogonalLoop=1;jettySize=auto;html=1;exitX=1;exitY=0.5;exitDx=0;exitDy=0;entryX=0;entryY=0.5;entryDx=0;entryDy=0;" parent="1" source="ecs" target="iam" edge="1">
          <mxGeometry relative="1" as="geometry" />
        </mxCell>
        <mxCell id="MyHjqr_ZiqhkuQCe465e-26" value="AssumeRole" style="edgeLabel;html=1;align=center;verticalAlign=middle;resizable=0;points=[];" parent="MyHjqr_ZiqhkuQCe465e-6" vertex="1" connectable="0">
          <mxGeometry x="-0.1311" y="2" relative="1" as="geometry">
            <mxPoint x="4" y="7" as="offset" />
          </mxGeometry>
        </mxCell>
        <mxCell id="MyHjqr_ZiqhkuQCe465e-12" style="edgeStyle=orthogonalEdgeStyle;rounded=0;orthogonalLoop=1;jettySize=auto;html=1;entryX=0.5;entryY=1;entryDx=0;entryDy=0;" parent="1" source="ecs" target="MyHjqr_ZiqhkuQCe465e-11" edge="1">
          <mxGeometry relative="1" as="geometry" />
        </mxCell>
        <mxCell id="ecs" value="MCP Server&lt;br&gt;on ECS Fargate" style="rounded=1;whiteSpace=wrap;html=1;fillColor=#d5e8d4;strokeColor=#82b366;fontSize=12;fontStyle=1;" parent="1" vertex="1">
          <mxGeometry x="450" y="100" width="120" height="60" as="geometry" />
        </mxCell>
        <mxCell id="MyHjqr_ZiqhkuQCe465e-28" style="rounded=0;orthogonalLoop=1;jettySize=auto;html=1;exitX=1;exitY=0.25;exitDx=0;exitDy=0;entryX=0;entryY=0.5;entryDx=0;entryDy=0;" parent="1" source="cognito" target="MyHjqr_ZiqhkuQCe465e-27" edge="1">
          <mxGeometry relative="1" as="geometry" />
        </mxCell>
        <mxCell id="NOxtXNaDk-5_E5Hug4nd-3" style="rounded=0;orthogonalLoop=1;jettySize=auto;html=1;entryX=0;entryY=0.5;entryDx=0;entryDy=0;" parent="1" source="cognito" target="NOxtXNaDk-5_E5Hug4nd-2" edge="1">
          <mxGeometry relative="1" as="geometry" />
        </mxCell>
        <mxCell id="cognito" value="Cognito&#xa;User Pool" style="rounded=1;whiteSpace=wrap;html=1;fillColor=#f8cecc;strokeColor=#b85450;fontSize=12;fontStyle=1;" parent="1" vertex="1">
          <mxGeometry x="450" y="310" width="120" height="60" as="geometry" />
        </mxCell>
        <mxCell id="dynamodb" value="DynamoDB&#xa;Travel Bookings" style="rounded=1;whiteSpace=wrap;html=1;fillColor=#ffe6cc;strokeColor=#d79b00;fontSize=12;fontStyle=1;" parent="1" vertex="1">
          <mxGeometry x="650" y="10" width="120" height="60" as="geometry" />
        </mxCell>
        <mxCell id="s3" value="S3 Bucket&#xa;Policy Documents" style="rounded=1;whiteSpace=wrap;html=1;fillColor=#ffe6cc;strokeColor=#d79b00;fontSize=12;fontStyle=1;" parent="1" vertex="1">
          <mxGeometry x="650" y="100" width="120" height="60" as="geometry" />
        </mxCell>
        <mxCell id="dcr-box" value="Dynamic Client Registration (DCR) Proxy" style="rounded=0;whiteSpace=wrap;html=1;fillColor=none;strokeColor=#d6b656;strokeWidth=2;dashed=1;fontSize=12;fontStyle=1;verticalAlign=top;" parent="1" vertex="1">
          <mxGeometry x="50" y="402" width="760" height="180" as="geometry" />
        </mxCell>
        <mxCell id="apigateway" value="API Gateway&#xa;DCR Endpoints" style="rounded=1;whiteSpace=wrap;html=1;fillColor=#fff2cc;strokeColor=#d6b656;fontSize=12;fontStyle=1;arcSize=0;" parent="1" vertex="1">
          <mxGeometry x="310" y="439" width="120" height="60" as="geometry" />
        </mxCell>
        <mxCell id="MyHjqr_ZiqhkuQCe465e-1" style="edgeStyle=orthogonalEdgeStyle;rounded=0;orthogonalLoop=1;jettySize=auto;html=1;" parent="1" source="cloudfront" target="apigateway" edge="1">
          <mxGeometry relative="1" as="geometry" />
        </mxCell>
        <mxCell id="cloudfront" value="CloudFront&#xa;Distribution" style="rounded=1;whiteSpace=wrap;html=1;fillColor=#f8cecc;strokeColor=#b85450;fontSize=12;fontStyle=1;" parent="1" vertex="1">
          <mxGeometry x="70" y="439" width="120" height="60" as="geometry" />
        </mxCell>
        <mxCell id="dcr-lambda" value="Lambda&lt;br&gt;OpenId Config" style="rounded=1;whiteSpace=wrap;html=1;fillColor=#d5e8d4;strokeColor=#82b366;fontSize=12;fontStyle=1;" parent="1" vertex="1">
          <mxGeometry x="540" y="535" width="120" height="40" as="geometry" />
        </mxCell>
        <mxCell id="MyHjqr_ZiqhkuQCe465e-5" style="edgeStyle=orthogonalEdgeStyle;rounded=0;orthogonalLoop=1;jettySize=auto;html=1;entryX=1;entryY=0.75;entryDx=0;entryDy=0;" parent="1" source="openid-lambda" target="cognito" edge="1">
          <mxGeometry relative="1" as="geometry" />
        </mxCell>
        <mxCell id="4BeIkBPhiAHc2snLanC3-3" style="edgeStyle=orthogonalEdgeStyle;rounded=0;orthogonalLoop=1;jettySize=auto;html=1;exitX=1;exitY=0.5;exitDx=0;exitDy=0;entryX=0;entryY=0.5;entryDx=0;entryDy=0;" edge="1" parent="1" source="openid-lambda" target="4BeIkBPhiAHc2snLanC3-2">
          <mxGeometry relative="1" as="geometry" />
        </mxCell>
        <mxCell id="openid-lambda" value="Lambda&lt;br&gt;DCR Handler" style="rounded=1;whiteSpace=wrap;html=1;fillColor=#d5e8d4;strokeColor=#82b366;fontSize=12;fontStyle=1;" parent="1" vertex="1">
          <mxGeometry x="540" y="449" width="120" height="40" as="geometry" />
        </mxCell>
        <mxCell id="iam" value="IAM Roles&#xa;&amp; Policies" style="rounded=1;whiteSpace=wrap;html=1;fillColor=#e1d5e7;strokeColor=#9673a6;fontSize=12;fontStyle=1;" parent="1" vertex="1">
          <mxGeometry x="650" y="180" width="120" height="60" as="geometry" />
        </mxCell>
        <mxCell id="conn1" value="" style="endArrow=classic;html=1;rounded=0;exitX=1;exitY=0.5;exitDx=0;exitDy=0;entryX=0;entryY=0.5;entryDx=0;entryDy=0;" parent="1" source="client" target="alb" edge="1">
          <mxGeometry width="50" height="50" relative="1" as="geometry">
            <mxPoint x="400" y="300" as="sourcePoint" />
            <mxPoint x="450" y="250" as="targetPoint" />
          </mxGeometry>
        </mxCell>
        <mxCell id="conn2" value="" style="endArrow=classic;html=1;rounded=0;exitX=1;exitY=0.5;exitDx=0;exitDy=0;entryX=0;entryY=0.5;entryDx=0;entryDy=0;" parent="1" source="alb" target="ecs" edge="1">
          <mxGeometry width="50" height="50" relative="1" as="geometry">
            <mxPoint x="400" y="300" as="sourcePoint" />
            <mxPoint x="450" y="250" as="targetPoint" />
          </mxGeometry>
        </mxCell>
        <mxCell id="conn4" value="" style="endArrow=classic;html=1;rounded=0;entryX=0;entryY=0.5;entryDx=0;entryDy=0;" parent="1" target="dynamodb" edge="1">
          <mxGeometry width="50" height="50" relative="1" as="geometry">
            <mxPoint x="570" y="130" as="sourcePoint" />
            <mxPoint x="450" y="250" as="targetPoint" />
          </mxGeometry>
        </mxCell>
        <mxCell id="conn5" value="" style="endArrow=classic;html=1;rounded=0;exitX=1;exitY=0.5;exitDx=0;exitDy=0;entryX=0;entryY=0.5;entryDx=0;entryDy=0;" parent="1" source="ecs" target="s3" edge="1">
          <mxGeometry width="50" height="50" relative="1" as="geometry">
            <mxPoint x="400" y="300" as="sourcePoint" />
            <mxPoint x="450" y="250" as="targetPoint" />
          </mxGeometry>
        </mxCell>
        <mxCell id="conn7" value="" style="endArrow=classic;html=1;rounded=0;exitX=0.5;exitY=1;exitDx=0;exitDy=0;entryX=0;entryY=0.5;entryDx=0;entryDy=0;edgeStyle=orthogonalEdgeStyle;" parent="1" source="apigateway" target="dcr-lambda" edge="1">
          <mxGeometry width="50" height="50" relative="1" as="geometry">
            <mxPoint x="400" y="585" as="sourcePoint" />
            <mxPoint x="450" y="535" as="targetPoint" />
          </mxGeometry>
        </mxCell>
        <mxCell id="conn9" value="" style="endArrow=classic;html=1;rounded=0;strokeColor=#d6b656;strokeWidth=2;dashed=1;exitX=0.5;exitY=1;exitDx=0;exitDy=0;" parent="1" source="client" edge="1">
          <mxGeometry y="-90" width="50" height="50" relative="1" as="geometry">
            <mxPoint x="150" y="180" as="sourcePoint" />
            <mxPoint x="110" y="400" as="targetPoint" />
            <mxPoint as="offset" />
          </mxGeometry>
        </mxCell>
        <mxCell id="D5IDzVMak5_5yx_ht3Hh-4" style="edgeStyle=orthogonalEdgeStyle;rounded=0;orthogonalLoop=1;jettySize=auto;html=1;exitX=0;exitY=0.5;exitDx=0;exitDy=0;opacity=40;textOpacity=40;" parent="1" source="D5IDzVMak5_5yx_ht3Hh-1" target="D5IDzVMak5_5yx_ht3Hh-2" edge="1">
          <mxGeometry relative="1" as="geometry" />
        </mxCell>
        <mxCell id="D5IDzVMak5_5yx_ht3Hh-1" value="ACM" style="rounded=1;whiteSpace=wrap;html=1;fillColor=#fff2cc;strokeColor=#d6b656;fontSize=12;fontStyle=1;opacity=40;textOpacity=40;" parent="1" vertex="1">
          <mxGeometry x="250" y="-100" width="120" height="60" as="geometry" />
        </mxCell>
        <mxCell id="D5IDzVMak5_5yx_ht3Hh-2" value="Route 53&lt;br&gt;Hosted Zone" style="rounded=1;whiteSpace=wrap;html=1;fillColor=#fff2cc;strokeColor=#d6b656;fontSize=12;fontStyle=1;opacity=40;textOpacity=40;" parent="1" vertex="1">
          <mxGeometry x="50" y="-100" width="120" height="60" as="geometry" />
        </mxCell>
        <mxCell id="MyHjqr_ZiqhkuQCe465e-2" value="" style="endArrow=classic;html=1;rounded=0;exitX=1;exitY=0.5;exitDx=0;exitDy=0;entryX=0;entryY=0.5;entryDx=0;entryDy=0;" parent="1" source="apigateway" target="openid-lambda" edge="1">
          <mxGeometry width="50" height="50" relative="1" as="geometry">
            <mxPoint x="350" y="509" as="sourcePoint" />
            <mxPoint x="290" y="535" as="targetPoint" />
          </mxGeometry>
        </mxCell>
        <mxCell id="MyHjqr_ZiqhkuQCe465e-14" value="/register" style="edgeLabel;html=1;align=center;verticalAlign=middle;resizable=0;points=[];" parent="MyHjqr_ZiqhkuQCe465e-2" vertex="1" connectable="0">
          <mxGeometry x="-0.2873" y="3" relative="1" as="geometry">
            <mxPoint x="6" y="3" as="offset" />
          </mxGeometry>
        </mxCell>
        <mxCell id="MyHjqr_ZiqhkuQCe465e-10" value="Authorization Code Grant&lt;br&gt;with client_id (or pre-registered)&lt;br&gt;/authorize &amp;amp; /token" style="text;html=1;align=center;verticalAlign=middle;resizable=0;points=[];autosize=1;strokeColor=none;fillColor=none;" parent="1" vertex="1">
          <mxGeometry x="242" y="284" width="190" height="60" as="geometry" />
        </mxCell>
        <mxCell id="MyHjqr_ZiqhkuQCe465e-11" value="&lt;span style=&quot;font-weight: normal;&quot;&gt;/.well-known/oauth-protected-resource&lt;/span&gt;" style="rounded=1;whiteSpace=wrap;html=1;fillColor=#f8cecc;strokeColor=#b85450;fontSize=12;fontStyle=1;" parent="1" vertex="1">
          <mxGeometry x="442.5" y="20" width="135" height="40" as="geometry" />
        </mxCell>
        <mxCell id="MyHjqr_ZiqhkuQCe465e-15" value="&lt;span style=&quot;color: rgb(0, 0, 0); font-family: Helvetica; font-size: 11px; font-style: normal; font-variant-ligatures: normal; font-variant-caps: normal; font-weight: 400; letter-spacing: normal; orphans: 2; text-indent: 0px; text-transform: none; widows: 2; word-spacing: 0px; -webkit-text-stroke-width: 0px; background-color: rgb(255, 255, 255); text-decoration-thickness: initial; text-decoration-style: initial; text-decoration-color: initial; float: none; display: inline !important;&quot;&gt;/.well-known&lt;br&gt;/openid-configuration&lt;br&gt;&lt;/span&gt;" style="text;whiteSpace=wrap;html=1;align=center;" parent="1" vertex="1">
          <mxGeometry x="354" y="518" width="200" height="40" as="geometry" />
        </mxCell>
        <mxCell id="MyHjqr_ZiqhkuQCe465e-16" value="Create &lt;br&gt;App Client" style="text;html=1;align=center;verticalAlign=middle;resizable=0;points=[];autosize=1;strokeColor=none;fillColor=none;" parent="1" vertex="1">
          <mxGeometry x="592" y="360" width="80" height="40" as="geometry" />
        </mxCell>
        <mxCell id="MyHjqr_ZiqhkuQCe465e-17" value="&lt;font color=&quot;#ff8000&quot; style=&quot;font-size: 29px;&quot;&gt;1a&lt;/font&gt;" style="ellipse;whiteSpace=wrap;html=1;aspect=fixed;fillColor=none;fontColor=#ffb570;strokeColor=#ff8000;strokeWidth=2;" parent="1" vertex="1">
          <mxGeometry x="390" y="20" width="40" height="40" as="geometry" />
        </mxCell>
        <mxCell id="MyHjqr_ZiqhkuQCe465e-18" value="&lt;font color=&quot;#ff8000&quot; style=&quot;font-size: 29px;&quot;&gt;2&lt;/font&gt;" style="ellipse;whiteSpace=wrap;html=1;aspect=fixed;fillColor=none;fontColor=#ffb570;strokeColor=#ff8000;strokeWidth=2;" parent="1" vertex="1">
          <mxGeometry x="60" y="250" width="40" height="40" as="geometry" />
        </mxCell>
        <mxCell id="MyHjqr_ZiqhkuQCe465e-19" value="&lt;font color=&quot;#ff8000&quot; style=&quot;font-size: 29px;&quot;&gt;3&lt;/font&gt;" style="ellipse;whiteSpace=wrap;html=1;aspect=fixed;fillColor=none;fontColor=#ffb570;strokeColor=#ff8000;strokeWidth=2;" parent="1" vertex="1">
          <mxGeometry x="200" y="290" width="40" height="40" as="geometry" />
        </mxCell>
        <mxCell id="label3" value="Verify token" style="text;html=1;strokeColor=none;fillColor=none;align=center;verticalAlign=middle;whiteSpace=wrap;rounded=0;fontSize=10;labelBackgroundColor=default;" parent="1" vertex="1">
          <mxGeometry x="490" y="220" width="40" height="20" as="geometry" />
        </mxCell>
        <mxCell id="MyHjqr_ZiqhkuQCe465e-27" value="PreToken &lt;br&gt;Handler" style="rounded=1;whiteSpace=wrap;html=1;fillColor=#d5e8d4;strokeColor=#82b366;fontSize=12;fontStyle=1;" parent="1" vertex="1">
          <mxGeometry x="660" y="330" width="120" height="45" as="geometry" />
        </mxCell>
        <mxCell id="MyHjqr_ZiqhkuQCe465e-29" value="&lt;font color=&quot;#ff8000&quot;&gt;&lt;span style=&quot;font-size: 29px;&quot;&gt;3b&lt;/span&gt;&lt;/font&gt;" style="ellipse;whiteSpace=wrap;html=1;aspect=fixed;fillColor=none;fontColor=#ffb570;strokeColor=#ff8000;strokeWidth=2;" parent="1" vertex="1">
          <mxGeometry x="783" y="332" width="40" height="40" as="geometry" />
        </mxCell>
        <mxCell id="4BeIkBPhiAHc2snLanC3-1" style="edgeStyle=orthogonalEdgeStyle;rounded=0;orthogonalLoop=1;jettySize=auto;html=1;exitX=1;exitY=0.5;exitDx=0;exitDy=0;entryX=1;entryY=0.5;entryDx=0;entryDy=0;" edge="1" parent="1" source="NOxtXNaDk-5_E5Hug4nd-14" target="s3">
          <mxGeometry relative="1" as="geometry">
            <Array as="points">
              <mxPoint x="823" y="302" />
              <mxPoint x="860" y="302" />
              <mxPoint x="860" y="130" />
            </Array>
          </mxGeometry>
        </mxCell>
        <mxCell id="NOxtXNaDk-5_E5Hug4nd-2" value="PostConfirmation&lt;br&gt;Handler" style="rounded=1;whiteSpace=wrap;html=1;fillColor=#d5e8d4;strokeColor=#82b366;fontSize=12;fontStyle=1;" parent="1" vertex="1">
          <mxGeometry x="660" y="279.5" width="120" height="45" as="geometry" />
        </mxCell>
        <mxCell id="NOxtXNaDk-5_E5Hug4nd-5" value="&lt;font color=&quot;#ff8000&quot; style=&quot;font-size: 29px;&quot;&gt;2b&lt;/font&gt;" style="ellipse;whiteSpace=wrap;html=1;aspect=fixed;fillColor=none;fontColor=#ffb570;strokeColor=#ff8000;strokeWidth=2;" parent="1" vertex="1">
          <mxGeometry x="460" y="426" width="38" height="38" as="geometry" />
        </mxCell>
        <mxCell id="NOxtXNaDk-5_E5Hug4nd-6" value="&lt;font color=&quot;#ff8000&quot;&gt;&lt;span style=&quot;font-size: 29px;&quot;&gt;2a&lt;/span&gt;&lt;/font&gt;" style="ellipse;whiteSpace=wrap;html=1;aspect=fixed;fillColor=none;fontColor=#ffb570;strokeColor=#ff8000;strokeWidth=2;" parent="1" vertex="1">
          <mxGeometry x="322" y="511" width="38" height="38" as="geometry" />
        </mxCell>
        <mxCell id="NOxtXNaDk-5_E5Hug4nd-7" value="&lt;font color=&quot;#ff8000&quot; style=&quot;font-size: 29px;&quot;&gt;1&lt;/font&gt;" style="ellipse;whiteSpace=wrap;html=1;aspect=fixed;fillColor=none;fontColor=#ffb570;strokeColor=#ff8000;strokeWidth=2;" parent="1" vertex="1">
          <mxGeometry x="190" y="80" width="40" height="40" as="geometry" />
        </mxCell>
        <mxCell id="NOxtXNaDk-5_E5Hug4nd-9" value="&lt;font color=&quot;#ff8000&quot;&gt;&lt;span style=&quot;font-size: 29px;&quot;&gt;4&lt;/span&gt;&lt;/font&gt;" style="ellipse;whiteSpace=wrap;html=1;aspect=fixed;fillColor=none;fontColor=#ffb570;strokeColor=#ff8000;strokeWidth=2;" parent="1" vertex="1">
          <mxGeometry x="191" y="140" width="40" height="40" as="geometry" />
        </mxCell>
        <mxCell id="NOxtXNaDk-5_E5Hug4nd-12" value="&amp;lt; Bearer Token&amp;gt;" style="text;html=1;align=center;verticalAlign=middle;resizable=0;points=[];autosize=1;strokeColor=none;fillColor=none;fontStyle=1" parent="1" vertex="1">
          <mxGeometry x="149" y="180" width="120" height="30" as="geometry" />
        </mxCell>
        <mxCell id="NOxtXNaDk-5_E5Hug4nd-13" value="&lt;font color=&quot;#ff8000&quot;&gt;&lt;span style=&quot;font-size: 29px;&quot;&gt;5&lt;/span&gt;&lt;/font&gt;" style="ellipse;whiteSpace=wrap;html=1;aspect=fixed;fillColor=none;fontColor=#ffb570;strokeColor=#ff8000;strokeWidth=2;" parent="1" vertex="1">
          <mxGeometry x="570" y="190" width="40" height="40" as="geometry" />
        </mxCell>
        <mxCell id="NOxtXNaDk-5_E5Hug4nd-14" value="&lt;font color=&quot;#ff8000&quot;&gt;&lt;span style=&quot;font-size: 29px;&quot;&gt;3a&lt;/span&gt;&lt;/font&gt;" style="ellipse;whiteSpace=wrap;html=1;aspect=fixed;fillColor=none;fontColor=#ffb570;strokeColor=#ff8000;strokeWidth=2;" parent="1" vertex="1">
          <mxGeometry x="783" y="279.5" width="40" height="40" as="geometry" />
        </mxCell>
        <mxCell id="4BeIkBPhiAHc2snLanC3-2" value="DynamoDB&lt;br&gt;Public Clients" style="rounded=1;whiteSpace=wrap;html=1;fillColor=#ffe6cc;strokeColor=#d79b00;fontSize=12;fontStyle=1;" vertex="1" parent="1">
          <mxGeometry x="672" y="449" width="120" height="41" as="geometry" />
        </mxCell>
      </root>
    </mxGraphModel>
  </diagram>
</mxfile>
